<?xml version="1.0" encoding="UTF-8" standalone="no"?>
<svg
   width="700pt"
   height="700pt"
   version="1.1"
   viewBox="0 0 700 700"
   id="svg122"
   sodipodi:docname="cart.svg"
   inkscape:version="1.2.1 (9c6d41e410, 2022-07-14)"
   xmlns:inkscape="http://www.inkscape.org/namespaces/inkscape"
   xmlns:sodipodi="http://sodipodi.sourceforge.net/DTD/sodipodi-0.dtd"
   xmlns="http://www.w3.org/2000/svg"
   xmlns:svg="http://www.w3.org/2000/svg">
  <defs
     id="defs126" />
  <sodipodi:namedview
     id="namedview124"
     pagecolor="#ffffff"
     bordercolor="#000000"
     borderopacity="0.25"
     inkscape:showpageshadow="2"
     inkscape:pageopacity="0.0"
     inkscape:pagecheckerboard="0"
     inkscape:deskcolor="#d1d1d1"
     inkscape:document-units="pt"
     showgrid="false"
     inkscape:zoom="0.715188"
     inkscape:cx="590.05464"
     inkscape:cy="374.72664"
     inkscape:window-width="1920"
     inkscape:window-height="1131"
     inkscape:window-x="0"
     inkscape:window-y="160"
     inkscape:window-maximized="1"
     inkscape:current-layer="svg122" />
  <path
     d="m125.95 84.578c-7.7031 0.015625-13.945 6.2461-13.973 13.945-0.015625 3.7148 1.4492 7.2891 4.0703 9.9258 2.6211 2.6367 6.1836 4.1211 9.9023 4.1289h70.465l22.422 66.965c0.007813 0.035156 0.015625 0.074219 0.027344 0.10938l51.543 153.97c-13.684 6.9727-23.133 21.258-23.133 37.543 0 23.035 18.91 42.055 41.945 42.055h7.0273c-2.1875 5.2734-3.3906 11.043-3.3906 17.062 0 24.711 20.359 45.145 45.062 45.145 24.703 0 44.953-20.434 44.953-45.145 0-6.0195-1.2148-11.789-3.3906-17.062h47.195c-2.1875 5.2734-3.418 11.043-3.418 17.062 0 24.711 20.359 45.145 45.062 45.145s44.953-20.434 44.953-45.145c0-6.0195-1.1875-11.789-3.3633-17.062h7.9297c7.6875-0.027344 13.914-6.2539 13.945-13.945 0.015625-3.7109-1.4453-7.2773-4.0625-9.9141-2.6133-2.6367-6.1719-4.125-9.8828-4.1406h-228.62c-7.957 0-13.945-6-13.945-14.055 0-8.0547 5.9883-14.055 13.945-14.055h228.62c1.0391-0.011719 2.0781-0.13672 3.0898-0.37891 0.37891-0.10156 0.75391-0.22266 1.1211-0.35547 0.62891-0.20312 1.2383-0.44922 1.832-0.73828 0.37109-0.17578 0.73828-0.36719 1.0938-0.57422 0.59375-0.36719 1.1602-0.77734 1.6953-1.2305 0.28125-0.20703 0.55469-0.42578 0.82031-0.65625 0.73828-0.70703 1.3984-1.4961 1.9688-2.3516 0.11328-0.20703 0.22266-0.41406 0.32812-0.62891 0.44141-0.73047 0.81641-1.4961 1.1211-2.2969 0.046875-0.097656 0.09375-0.19922 0.14062-0.30078l56.246-167.95c1.4414-4.2656 0.74219-8.9688-1.8828-12.633-2.6211-3.6641-6.8477-5.8398-11.352-5.8516h-331.82l-22.449-67.074c-0.070313-0.17188-0.14453-0.34766-0.21875-0.51562-0.21484-0.54688-0.46094-1.0742-0.73828-1.5859-0.1875-0.34766-0.38672-0.68359-0.60156-1.0156-0.22266-0.32812-0.46094-0.64844-0.71094-0.95703-0.18359-0.26172-0.375-0.51562-0.57422-0.76562-0.44141-0.47656-0.91797-0.92578-1.4219-1.3398-0.30859-0.25781-0.62891-0.50391-0.95703-0.73828-0.51562-0.37109-1.0547-0.71094-1.6133-1.0117-0.32422-0.15625-0.65234-0.30469-0.98438-0.4375-0.37891-0.16406-0.76172-0.30859-1.1484-0.44141-0.33594-0.11328-0.67188-0.21094-1.0117-0.30078-0.066406-0.007813-0.12891-0.019531-0.19141-0.027344-0.48828-0.11719-0.98047-0.21094-1.4766-0.27344h-0.11328c-0.39844-0.046875-0.80078-0.074219-1.2031-0.085938-0.12891-0.011718-0.25391-0.019531-0.38281-0.027344zm125.67 104.59h302.89l-46.812 139.95h-209.26zm86.297 224.05c9.5195 0 16.926 7.4375 16.926 17.062s-7.4062 17.145-16.926 17.145c-9.5195 0-17.062-7.5195-17.062-17.145s7.543-17.062 17.062-17.062zm130.4 0c9.5195 0 16.953 7.4375 16.953 17.062s-7.4336 17.145-16.953 17.145c-9.5195 0-17.035-7.5195-17.035-17.145s7.5156-17.062 17.035-17.062z"
     fill-rule="evenodd"
     id="path120"
     style="fill:#ffffff" />
</svg>
